<svg 
id="visual" 
viewBox="0 0 960 540" 
width="960" 
height="540" 
xmlns="http://www.w3.org/2000/svg" 
xmlns:xlink="http://www.w3.org/1999/xlink" 
version="1.1">
<path d="M940 540L959 540L959 486L911 486L911 432L901 432L901 378L882 378L882 324L892 324L892 270L930 270L930 216L844 216L844 162L959 162L959 108L940 108L940 54L863 54L863 0L960 0L960 54L960 54L960 108L960 108L960 162L960 162L960 216L960 216L960 270L960 270L960 324L960 324L960 378L960 378L960 432L960 432L960 486L960 486L960 540L960 540Z" fill="#000f30"></path><path d="M882 540L825 540L825 486L892 486L892 432L901 432L901 378L738 378L738 324L873 324L873 270L786 270L786 216L786 216L786 162L834 162L834 108L834 108L834 54L796 54L796 0L864 0L864 54L941 54L941 108L960 108L960 162L845 162L845 216L931 216L931 270L893 270L893 324L883 324L883 378L902 378L902 432L912 432L912 486L960 486L960 540L941 540Z" fill="#0a1237"></path><path d="M508 540L594 540L594 486L873 486L873 432L354 432L354 378L671 378L671 324L777 324L777 270L613 270L613 216L738 216L738 162L805 162L805 108L709 108L709 54L508 54L508 0L797 0L797 54L835 54L835 108L835 108L835 162L787 162L787 216L787 216L787 270L874 270L874 324L739 324L739 378L902 378L902 432L893 432L893 486L826 486L826 540L883 540Z" fill="#17143d"></path><path d="M479 540L431 540L431 486L527 486L527 432L345 432L345 378L364 378L364 324L546 324L546 270L306 270L306 216L441 216L441 162L469 162L469 108L450 108L450 54L508 54L508 0L509 0L509 54L710 54L710 108L806 108L806 162L739 162L739 216L614 216L614 270L778 270L778 324L672 324L672 378L355 378L355 432L874 432L874 486L595 486L595 540L509 540Z" fill="#251442"></path><path d="M469 540L402 540L402 486L489 486L489 432L268 432L268 378L268 378L268 324L383 324L383 270L153 270L153 216L412 216L412 162L306 162L306 108L210 108L210 54L345 54L345 0L509 0L509 54L451 54L451 108L470 108L470 162L442 162L442 216L307 216L307 270L547 270L547 324L365 324L365 378L346 378L346 432L528 432L528 486L432 486L432 540L480 540Z" fill="#321346"></path><path d="M335 540L210 540L210 486L306 486L306 432L153 432L153 378L239 378L239 324L220 324L220 270L76 270L76 216L249 216L249 162L258 162L258 108L162 108L162 54L239 54L239 0L346 0L346 54L211 54L211 108L307 108L307 162L413 162L413 216L154 216L154 270L384 270L384 324L269 324L269 378L269 378L269 432L490 432L490 486L403 486L403 540L470 540Z" fill="#3f1148"></path><path d="M181 540L105 540L105 486L124 486L124 432L66 432L66 378L95 378L95 324L181 324L181 270L76 270L76 216L114 216L114 162L220 162L220 108L124 108L124 54L220 54L220 0L240 0L240 54L163 54L163 108L259 108L259 162L250 162L250 216L77 216L77 270L221 270L221 324L240 324L240 378L154 378L154 432L307 432L307 486L211 486L211 540L336 540Z" fill="#4d0d4a"></path><path d="M47 540L95 540L95 486L9 486L9 432L28 432L28 378L66 378L66 324L66 324L66 270L28 270L28 216L28 216L28 162L95 162L95 108L105 108L105 54L105 54L105 0L221 0L221 54L125 54L125 108L221 108L221 162L115 162L115 216L77 216L77 270L182 270L182 324L96 324L96 378L67 378L67 432L125 432L125 486L106 486L106 540L182 540Z" fill="#5a074a"></path><path d="M0 540L0 540L0 486L0 486L0 432L0 432L0 378L0 378L0 324L0 324L0 270L0 270L0 216L0 216L0 162L0 162L0 108L0 108L0 54L0 54L0 0L106 0L106 54L106 54L106 108L96 108L96 162L29 162L29 216L29 216L29 270L67 270L67 324L67 324L67 378L29 378L29 432L10 432L10 486L96 486L96 540L48 540Z" fill="#670048"></path>
</svg>