<svg id="visual" viewBox="0 0 960 540" width="960" height="540" xmlns="http://www.w3.org/2000/svg" xmlns:xlink="http://www.w3.org/1999/xlink" version="1.1"><path d="M882 540L796 540L796 491L882 491L882 442L844 442L844 393L911 393L911 344L757 344L757 295L873 295L873 245L719 245L719 196L940 196L940 147L959 147L959 98L853 98L853 49L757 49L757 0L960 0L960 49L960 49L960 98L960 98L960 147L960 147L960 196L960 196L960 245L960 245L960 295L960 295L960 344L960 344L960 393L960 393L960 442L960 442L960 491L960 491L960 540L960 540Z" fill="#490037"></path><path d="M834 540L719 540L719 491L805 491L805 442L796 442L796 393L853 393L853 344L738 344L738 295L825 295L825 245L700 245L700 196L863 196L863 147L930 147L930 98L815 98L815 49L729 49L729 0L758 0L758 49L854 49L854 98L960 98L960 147L941 147L941 196L720 196L720 245L874 245L874 295L758 295L758 344L912 344L912 393L845 393L845 442L883 442L883 491L797 491L797 540L883 540Z" fill="#3a083a"></path><path d="M786 540L671 540L671 491L748 491L748 442L767 442L767 393L844 393L844 344L633 344L633 295L767 295L767 245L681 245L681 196L825 196L825 147L892 147L892 98L757 98L757 49L690 49L690 0L730 0L730 49L816 49L816 98L931 98L931 147L864 147L864 196L701 196L701 245L826 245L826 295L739 295L739 344L854 344L854 393L797 393L797 442L806 442L806 491L720 491L720 540L835 540Z" fill="#290e3a"></path><path d="M460 540L594 540L594 491L738 491L738 442L306 442L306 393L460 393L460 344L460 344L460 295L402 295L402 245L498 245L498 196L546 196L546 147L834 147L834 98L748 98L748 49L556 49L556 0L691 0L691 49L758 49L758 98L893 98L893 147L826 147L826 196L682 196L682 245L768 245L768 295L634 295L634 344L845 344L845 393L768 393L768 442L749 442L749 491L672 491L672 540L787 540Z" fill="#181138"></path><path d="M325 540L460 540L460 491L575 491L575 442L306 442L306 393L383 393L383 344L431 344L431 295L364 295L364 245L450 245L450 196L431 196L431 147L748 147L748 98L738 98L738 49L469 49L469 0L557 0L557 49L749 49L749 98L835 98L835 147L547 147L547 196L499 196L499 245L403 245L403 295L461 295L461 344L461 344L461 393L307 393L307 442L739 442L739 491L595 491L595 540L461 540Z" fill="#061033"></path><path d="M297 540L335 540L335 491L220 491L220 442L268 442L268 393L297 393L297 344L124 344L124 295L268 295L268 245L229 245L229 196L143 196L143 147L239 147L239 98L383 98L383 49L373 49L373 0L470 0L470 49L739 49L739 98L749 98L749 147L432 147L432 196L451 196L451 245L365 245L365 295L432 295L432 344L384 344L384 393L307 393L307 442L576 442L576 491L461 491L461 540L326 540Z" fill="#000f30"></path><path d="M162 540L210 540L210 491L181 491L181 442L153 442L153 393L239 393L239 344L114 344L114 295L172 295L172 245L220 245L220 196L143 196L143 147L210 147L210 98L325 98L325 49L297 49L297 0L374 0L374 49L384 49L384 98L240 98L240 147L144 147L144 196L230 196L230 245L269 245L269 295L125 295L125 344L298 344L298 393L269 393L269 442L221 442L221 491L336 491L336 540L298 540Z" fill="#000f30"></path><path d="M153 540L210 540L210 491L95 491L95 442L143 442L143 393L239 393L239 344L9 344L9 295L143 295L143 245L114 245L114 196L114 196L114 147L143 147L143 98L249 98L249 49L210 49L210 0L298 0L298 49L326 49L326 98L211 98L211 147L144 147L144 196L221 196L221 245L173 245L173 295L115 295L115 344L240 344L240 393L154 393L154 442L182 442L182 491L211 491L211 540L163 540Z" fill="#061033"></path><path d="M76 540L133 540L133 491L76 491L76 442L95 442L95 393L220 393L220 344L9 344L9 295L133 295L133 245L66 245L66 196L95 196L95 147L95 147L95 98L172 98L172 49L201 49L201 0L211 0L211 49L250 49L250 98L144 98L144 147L115 147L115 196L115 196L115 245L144 245L144 295L10 295L10 344L240 344L240 393L144 393L144 442L96 442L96 491L211 491L211 540L154 540Z" fill="#181138"></path><path d="M47 540L66 540L66 491L66 491L66 442L95 442L95 393L76 393L76 344L0 344L0 295L57 295L57 245L57 245L57 196L95 196L95 147L76 147L76 98L85 98L85 49L143 49L143 0L202 0L202 49L173 49L173 98L96 98L96 147L96 147L96 196L67 196L67 245L134 245L134 295L10 295L10 344L221 344L221 393L96 393L96 442L77 442L77 491L134 491L134 540L77 540Z" fill="#290e3a"></path><path d="M47 540L66 540L66 491L47 491L47 442L28 442L28 393L18 393L18 344L0 344L0 295L37 295L37 245L47 245L47 196L66 196L66 147L9 147L9 98L9 98L9 49L114 49L114 0L144 0L144 49L86 49L86 98L77 98L77 147L96 147L96 196L58 196L58 245L58 245L58 295L0 295L0 344L77 344L77 393L96 393L96 442L67 442L67 491L67 491L67 540L48 540Z" fill="#3a083a"></path><path d="M0 540L0 540L0 491L0 491L0 442L0 442L0 393L0 393L0 344L0 344L0 295L0 295L0 245L0 245L0 196L0 196L0 147L0 147L0 98L0 98L0 49L0 49L0 0L115 0L115 49L10 49L10 98L10 98L10 147L67 147L67 196L48 196L48 245L38 245L38 295L0 295L0 344L19 344L19 393L29 393L29 442L48 442L48 491L67 491L67 540L48 540Z" fill="#490037"></path></svg>