<svg id="visual" viewBox="0 0 540 960" width="540" height="960" xmlns="http://www.w3.org/2000/svg" xmlns:xlink="http://www.w3.org/1999/xlink" version="1.1"><path d="M501 960L458 960L458 912L512 912L512 864L512 864L512 816L474 816L474 768L517 768L517 720L528 720L528 672L517 672L517 624L496 624L496 576L512 576L512 528L485 528L485 480L501 480L501 432L496 432L496 384L539 384L539 336L480 336L480 288L512 288L512 240L496 240L496 192L490 192L490 144L501 144L501 96L474 96L474 48L453 48L453 0L540 0L540 48L540 48L540 96L540 96L540 144L540 144L540 192L540 192L540 240L540 240L540 288L540 288L540 336L540 336L540 384L540 384L540 432L540 432L540 480L540 480L540 528L540 528L540 576L540 576L540 624L540 624L540 672L540 672L540 720L540 720L540 768L540 768L540 816L540 816L540 864L540 864L540 912L540 912L540 960L540 960Z" fill="#4c0135"></path><path d="M442 960L431 960L431 912L507 912L507 864L485 864L485 816L469 816L469 768L474 768L474 720L485 720L485 672L480 672L480 624L458 624L458 576L458 576L458 528L420 528L420 480L474 480L474 432L474 432L474 384L523 384L523 336L415 336L415 288L496 288L496 240L442 240L442 192L447 192L447 144L501 144L501 96L458 96L458 48L420 48L420 0L454 0L454 48L475 48L475 96L502 96L502 144L491 144L491 192L497 192L497 240L513 240L513 288L481 288L481 336L540 336L540 384L497 384L497 432L502 432L502 480L486 480L486 528L513 528L513 576L497 576L497 624L518 624L518 672L529 672L529 720L518 720L518 768L475 768L475 816L513 816L513 864L513 864L513 912L459 912L459 960L502 960Z" fill="#3b0a39"></path><path d="M415 960L431 960L431 912L501 912L501 864L442 864L442 816L431 816L431 768L442 768L442 720L458 720L458 672L463 672L463 624L458 624L458 576L431 576L431 528L388 528L388 480L436 480L436 432L469 432L469 384L490 384L490 336L382 336L382 288L447 288L447 240L415 240L415 192L442 192L442 144L485 144L485 96L436 96L436 48L420 48L420 0L421 0L421 48L459 48L459 96L502 96L502 144L448 144L448 192L443 192L443 240L497 240L497 288L416 288L416 336L524 336L524 384L475 384L475 432L475 432L475 480L421 480L421 528L459 528L459 576L459 576L459 624L481 624L481 672L486 672L486 720L475 720L475 768L470 768L470 816L486 816L486 864L508 864L508 912L432 912L432 960L443 960Z" fill="#281039"></path><path d="M350 960L361 960L361 912L166 912L166 864L372 864L372 816L269 816L269 768L177 768L177 720L318 720L318 672L312 672L312 624L285 624L285 576L323 576L323 528L323 528L323 480L253 480L253 432L399 432L399 384L382 384L382 336L285 336L285 288L328 288L328 240L285 240L285 192L431 192L431 144L447 144L447 96L399 96L399 48L415 48L415 0L421 0L421 48L437 48L437 96L486 96L486 144L443 144L443 192L416 192L416 240L448 240L448 288L383 288L383 336L491 336L491 384L470 384L470 432L437 432L437 480L389 480L389 528L432 528L432 576L459 576L459 624L464 624L464 672L459 672L459 720L443 720L443 768L432 768L432 816L443 816L443 864L502 864L502 912L432 912L432 960L416 960Z" fill="#141236"></path><path d="M345 960L339 960L339 912L161 912L161 864L334 864L334 816L258 816L258 768L172 768L172 720L296 720L296 672L269 672L269 624L237 624L237 576L307 576L307 528L274 528L274 480L242 480L242 432L372 432L372 384L350 384L350 336L237 336L237 288L318 288L318 240L253 240L253 192L409 192L409 144L420 144L420 96L372 96L372 48L404 48L404 0L416 0L416 48L400 48L400 96L448 96L448 144L432 144L432 192L286 192L286 240L329 240L329 288L286 288L286 336L383 336L383 384L400 384L400 432L254 432L254 480L324 480L324 528L324 528L324 576L286 576L286 624L313 624L313 672L319 672L319 720L178 720L178 768L270 768L270 816L373 816L373 864L167 864L167 912L362 912L362 960L351 960Z" fill="#00102f"></path><path d="M345 960L312 960L312 912L123 912L123 864L291 864L291 816L210 816L210 768L172 768L172 720L253 720L253 672L264 672L264 624L231 624L231 576L285 576L285 528L269 528L269 480L193 480L193 432L345 432L345 384L328 384L328 336L226 336L226 288L307 288L307 240L253 240L253 192L399 192L399 144L382 144L382 96L323 96L323 48L377 48L377 0L405 0L405 48L373 48L373 96L421 96L421 144L410 144L410 192L254 192L254 240L319 240L319 288L238 288L238 336L351 336L351 384L373 384L373 432L243 432L243 480L275 480L275 528L308 528L308 576L238 576L238 624L270 624L270 672L297 672L297 720L173 720L173 768L259 768L259 816L335 816L335 864L162 864L162 912L340 912L340 960L346 960Z" fill="#00102f"></path><path d="M156 960L188 960L188 912L118 912L118 864L161 864L161 816L80 816L80 768L145 768L145 720L210 720L210 672L172 672L172 624L150 624L150 576L220 576L220 528L215 528L215 480L75 480L75 432L285 432L285 384L242 384L242 336L161 336L161 288L172 288L172 240L215 240L215 192L269 192L269 144L242 144L242 96L166 96L166 48L150 48L150 0L378 0L378 48L324 48L324 96L383 96L383 144L400 144L400 192L254 192L254 240L308 240L308 288L227 288L227 336L329 336L329 384L346 384L346 432L194 432L194 480L270 480L270 528L286 528L286 576L232 576L232 624L265 624L265 672L254 672L254 720L173 720L173 768L211 768L211 816L292 816L292 864L124 864L124 912L313 912L313 960L346 960Z" fill="#00102f"></path><path d="M150 960L183 960L183 912L80 912L80 864L42 864L42 816L64 816L64 768L112 768L112 720L161 720L161 672L42 672L42 624L107 624L107 576L129 576L129 528L107 528L107 480L58 480L58 432L199 432L199 384L145 384L145 336L96 336L96 288L156 288L156 240L75 240L75 192L145 192L145 144L123 144L123 96L139 96L139 48L48 48L48 0L151 0L151 48L167 48L167 96L243 96L243 144L270 144L270 192L216 192L216 240L173 240L173 288L162 288L162 336L243 336L243 384L286 384L286 432L76 432L76 480L216 480L216 528L221 528L221 576L151 576L151 624L173 624L173 672L211 672L211 720L146 720L146 768L81 768L81 816L162 816L162 864L119 864L119 912L189 912L189 960L157 960Z" fill="#141236"></path><path d="M85 960L102 960L102 912L0 912L0 864L0 864L0 816L15 816L15 768L21 768L21 720L69 720L69 672L42 672L42 624L85 624L85 576L48 576L48 528L64 528L64 480L42 480L42 432L102 432L102 384L58 384L58 336L64 336L64 288L42 288L42 240L75 240L75 192L107 192L107 144L37 144L37 96L53 96L53 48L48 48L48 0L49 0L49 48L140 48L140 96L124 96L124 144L146 144L146 192L76 192L76 240L157 240L157 288L97 288L97 336L146 336L146 384L200 384L200 432L59 432L59 480L108 480L108 528L130 528L130 576L108 576L108 624L43 624L43 672L162 672L162 720L113 720L113 768L65 768L65 816L43 816L43 864L81 864L81 912L184 912L184 960L151 960Z" fill="#281039"></path><path d="M48 960L53 960L53 912L0 912L0 864L0 864L0 816L4 816L4 768L15 768L15 720L53 720L53 672L10 672L10 624L53 624L53 576L42 576L42 528L15 528L15 480L31 480L31 432L53 432L53 384L31 384L31 336L26 336L26 288L37 288L37 240L21 240L21 192L58 192L58 144L31 144L31 96L26 96L26 48L42 48L42 0L49 0L49 48L54 48L54 96L38 96L38 144L108 144L108 192L76 192L76 240L43 240L43 288L65 288L65 336L59 336L59 384L103 384L103 432L43 432L43 480L65 480L65 528L49 528L49 576L86 576L86 624L43 624L43 672L70 672L70 720L22 720L22 768L16 768L16 816L0 816L0 864L0 864L0 912L103 912L103 960L86 960Z" fill="#3b0a39"></path><path d="M0 960L0 960L0 912L0 912L0 864L0 864L0 816L0 816L0 768L0 768L0 720L0 720L0 672L0 672L0 624L0 624L0 576L0 576L0 528L0 528L0 480L0 480L0 432L0 432L0 384L0 384L0 336L0 336L0 288L0 288L0 240L0 240L0 192L0 192L0 144L0 144L0 96L0 96L0 48L0 48L0 0L43 0L43 48L27 48L27 96L32 96L32 144L59 144L59 192L22 192L22 240L38 240L38 288L27 288L27 336L32 336L32 384L54 384L54 432L32 432L32 480L16 480L16 528L43 528L43 576L54 576L54 624L11 624L11 672L54 672L54 720L16 720L16 768L5 768L5 816L0 816L0 864L0 864L0 912L54 912L54 960L49 960Z" fill="#4c0135"></path></svg>