<svg id="visual" viewBox="0 0 540 960" width="540" height="960" xmlns="http://www.w3.org/2000/svg" xmlns:xlink="http://www.w3.org/1999/xlink" version="1.1"><path d="M0 20L54 20L54 0L108 0L108 49L162 49L162 59L216 59L216 78L270 78L270 68L324 68L324 30L378 30L378 116L432 116L432 0L486 0L486 20L540 20L540 97L540 0L540 0L486 0L486 0L432 0L432 0L378 0L378 0L324 0L324 0L270 0L270 0L216 0L216 0L162 0L162 0L108 0L108 0L54 0L54 0L0 0Z" fill="#000f30"></path><path d="M0 78L54 78L54 135L108 135L108 68L162 68L162 59L216 59L216 222L270 222L270 87L324 87L324 174L378 174L378 174L432 174L432 126L486 126L486 126L540 126L540 164L540 95L540 18L486 18L486 0L432 0L432 114L378 114L378 28L324 28L324 66L270 66L270 76L216 76L216 57L162 57L162 47L108 47L108 0L54 0L54 18L0 18Z" fill="#0a1237"></path><path d="M0 452L54 452L54 366L108 366L108 87L162 87L162 606L216 606L216 289L270 289L270 183L324 183L324 347L378 347L378 222L432 222L432 155L486 155L486 251L540 251L540 452L540 162L540 124L486 124L486 124L432 124L432 172L378 172L378 172L324 172L324 85L270 85L270 220L216 220L216 57L162 57L162 66L108 66L108 133L54 133L54 76L0 76Z" fill="#17143d"></path><path d="M0 481L54 481L54 529L108 529L108 433L162 433L162 615L216 615L216 596L270 596L270 414L324 414L324 654L378 654L378 519L432 519L432 491L486 491L486 510L540 510L540 452L540 450L540 249L486 249L486 153L432 153L432 220L378 220L378 345L324 345L324 181L270 181L270 287L216 287L216 604L162 604L162 85L108 85L108 364L54 364L54 450L0 450Z" fill="#251442"></path><path d="M0 491L54 491L54 558L108 558L108 471L162 471L162 692L216 692L216 692L270 692L270 577L324 577L324 807L378 807L378 548L432 548L432 654L486 654L486 750L540 750L540 615L540 450L540 508L486 508L486 489L432 489L432 517L378 517L378 652L324 652L324 412L270 412L270 594L216 594L216 613L162 613L162 431L108 431L108 527L54 527L54 479L0 479Z" fill="#321346"></path><path d="M0 625L54 625L54 750L108 750L108 654L162 654L162 807L216 807L216 721L270 721L270 740L324 740L324 884L378 884L378 711L432 711L432 702L486 702L486 798L540 798L540 721L540 613L540 748L486 748L486 652L432 652L432 546L378 546L378 805L324 805L324 575L270 575L270 690L216 690L216 690L162 690L162 469L108 469L108 556L54 556L54 489L0 489Z" fill="#3f1148"></path><path d="M0 779L54 779L54 855L108 855L108 836L162 836L162 894L216 894L216 865L270 865L270 779L324 779L324 884L378 884L378 846L432 846L432 740L486 740L486 836L540 836L540 740L540 719L540 796L486 796L486 700L432 700L432 709L378 709L378 882L324 882L324 738L270 738L270 719L216 719L216 805L162 805L162 652L108 652L108 748L54 748L54 623L0 623Z" fill="#4d0d4a"></path><path d="M0 913L54 913L54 865L108 865L108 951L162 951L162 932L216 932L216 894L270 894L270 894L324 894L324 932L378 932L378 932L432 932L432 865L486 865L486 855L540 855L540 855L540 738L540 834L486 834L486 738L432 738L432 844L378 844L378 882L324 882L324 777L270 777L270 863L216 863L216 892L162 892L162 834L108 834L108 853L54 853L54 777L0 777Z" fill="#5a074a"></path><path d="M0 961L54 961L54 961L108 961L108 961L162 961L162 961L216 961L216 961L270 961L270 961L324 961L324 961L378 961L378 961L432 961L432 961L486 961L486 961L540 961L540 961L540 853L540 853L486 853L486 863L432 863L432 930L378 930L378 930L324 930L324 892L270 892L270 892L216 892L216 930L162 930L162 949L108 949L108 863L54 863L54 911L0 911Z" fill="#670048"></path></svg>