<svg id="visual" viewBox="0 0 675 900" width="675" height="900" xmlns="http://www.w3.org/2000/svg" xmlns:xlink="http://www.w3.org/1999/xlink" version="1.1"><path d="M613 900L634 900L634 855L640 855L640 810L667 810L667 765L613 765L613 720L593 720L593 675L586 675L586 630L607 630L607 585L600 585L600 540L634 540L634 495L654 495L654 450L607 450L607 405L620 405L620 360L661 360L661 315L634 315L634 270L593 270L593 225L667 225L667 180L620 180L620 135L654 135L654 90L607 90L607 45L654 45L654 0L675 0L675 45L675 45L675 90L675 90L675 135L675 135L675 180L675 180L675 225L675 225L675 270L675 270L675 315L675 315L675 360L675 360L675 405L675 405L675 450L675 450L675 495L675 495L675 540L675 540L675 585L675 585L675 630L675 630L675 675L675 675L675 720L675 720L675 765L675 765L675 810L675 810L675 855L675 855L675 900L675 900Z" fill="#4c0135"></path><path d="M586 900L586 900L586 855L546 855L546 810L607 810L607 765L566 765L566 720L586 720L586 675L532 675L532 630L546 630L546 585L566 585L566 540L586 540L586 495L580 495L580 450L580 450L580 405L620 405L620 360L566 360L566 315L613 315L613 270L512 270L512 225L627 225L627 180L566 180L566 135L620 135L620 90L546 90L546 45L586 45L586 0L655 0L655 45L608 45L608 90L655 90L655 135L621 135L621 180L668 180L668 225L594 225L594 270L635 270L635 315L662 315L662 360L621 360L621 405L608 405L608 450L655 450L655 495L635 495L635 540L601 540L601 585L608 585L608 630L587 630L587 675L594 675L594 720L614 720L614 765L668 765L668 810L641 810L641 855L635 855L635 900L614 900Z" fill="#3b0a39"></path><path d="M553 900L526 900L526 855L499 855L499 810L519 810L519 765L553 765L553 720L546 720L546 675L465 675L465 630L532 630L532 585L553 585L553 540L566 540L566 495L526 495L526 450L485 450L485 405L519 405L519 360L492 360L492 315L546 315L546 270L471 270L471 225L566 225L566 180L499 180L499 135L566 135L566 90L539 90L539 45L566 45L566 0L587 0L587 45L547 45L547 90L621 90L621 135L567 135L567 180L628 180L628 225L513 225L513 270L614 270L614 315L567 315L567 360L621 360L621 405L581 405L581 450L581 450L581 495L587 495L587 540L567 540L567 585L547 585L547 630L533 630L533 675L587 675L587 720L567 720L567 765L608 765L608 810L547 810L547 855L587 855L587 900L587 900Z" fill="#281039"></path><path d="M377 900L512 900L512 855L492 855L492 810L478 810L478 765L391 765L391 720L526 720L526 675L337 675L337 630L377 630L377 585L289 585L289 540L438 540L438 495L343 495L343 450L283 450L283 405L370 405L370 360L235 360L235 315L283 315L283 270L444 270L444 225L539 225L539 180L310 180L310 135L397 135L397 90L404 90L404 45L377 45L377 0L567 0L567 45L540 45L540 90L567 90L567 135L500 135L500 180L567 180L567 225L472 225L472 270L547 270L547 315L493 315L493 360L520 360L520 405L486 405L486 450L527 450L527 495L567 495L567 540L554 540L554 585L533 585L533 630L466 630L466 675L547 675L547 720L554 720L554 765L520 765L520 810L500 810L500 855L527 855L527 900L554 900Z" fill="#141236"></path><path d="M208 900L471 900L471 855L418 855L418 810L397 810L397 765L350 765L350 720L397 720L397 675L337 675L337 630L283 630L283 585L168 585L168 540L276 540L276 495L181 495L181 450L276 450L276 405L323 405L323 360L195 360L195 315L215 315L215 270L357 270L357 225L465 225L465 180L222 180L222 135L296 135L296 90L323 90L323 45L262 45L262 0L378 0L378 45L405 45L405 90L398 90L398 135L311 135L311 180L540 180L540 225L445 225L445 270L284 270L284 315L236 315L236 360L371 360L371 405L284 405L284 450L344 450L344 495L439 495L439 540L290 540L290 585L378 585L378 630L338 630L338 675L527 675L527 720L392 720L392 765L479 765L479 810L493 810L493 855L513 855L513 900L378 900Z" fill="#00102f"></path><path d="M195 900L397 900L397 855L411 855L411 810L323 810L323 765L316 765L316 720L289 720L289 675L283 675L283 630L195 630L195 585L94 585L94 540L256 540L256 495L147 495L147 450L235 450L235 405L296 405L296 360L181 360L181 315L215 315L215 270L249 270L249 225L431 225L431 180L215 180L215 135L228 135L228 90L303 90L303 45L208 45L208 0L263 0L263 45L324 45L324 90L297 90L297 135L223 135L223 180L466 180L466 225L358 225L358 270L216 270L216 315L196 315L196 360L324 360L324 405L277 405L277 450L182 450L182 495L277 495L277 540L169 540L169 585L284 585L284 630L338 630L338 675L398 675L398 720L351 720L351 765L398 765L398 810L419 810L419 855L472 855L472 900L209 900Z" fill="#00102f"></path><path d="M134 900L357 900L357 855L357 855L357 810L262 810L262 765L256 765L256 720L289 720L289 675L283 675L283 630L141 630L141 585L73 585L73 540L195 540L195 495L121 495L121 450L228 450L228 405L269 405L269 360L134 360L134 315L161 315L161 270L249 270L249 225L418 225L418 180L175 180L175 135L228 135L228 90L242 90L242 45L168 45L168 0L209 0L209 45L304 45L304 90L229 90L229 135L216 135L216 180L432 180L432 225L250 225L250 270L216 270L216 315L182 315L182 360L297 360L297 405L236 405L236 450L148 450L148 495L257 495L257 540L95 540L95 585L196 585L196 630L284 630L284 675L290 675L290 720L317 720L317 765L324 765L324 810L412 810L412 855L398 855L398 900L196 900Z" fill="#00102f"></path><path d="M94 900L161 900L161 855L80 855L80 810L147 810L147 765L141 765L141 720L100 720L100 675L87 675L87 630L121 630L121 585L60 585L60 540L107 540L107 495L66 495L66 450L154 450L154 405L147 405L147 360L107 360L107 315L53 315L53 270L127 270L127 225L127 225L127 180L134 180L134 135L46 135L46 90L134 90L134 45L107 45L107 0L169 0L169 45L243 45L243 90L229 90L229 135L176 135L176 180L419 180L419 225L250 225L250 270L162 270L162 315L135 315L135 360L270 360L270 405L229 405L229 450L122 450L122 495L196 495L196 540L74 540L74 585L142 585L142 630L284 630L284 675L290 675L290 720L257 720L257 765L263 765L263 810L358 810L358 855L358 855L358 900L135 900Z" fill="#141236"></path><path d="M33 900L94 900L94 855L13 855L13 810L107 810L107 765L107 765L107 720L40 720L40 675L40 675L40 630L73 630L73 585L26 585L26 540L94 540L94 495L60 495L60 450L87 450L87 405L114 405L114 360L73 360L73 315L19 315L19 270L100 270L100 225L87 225L87 180L94 180L94 135L46 135L46 90L80 90L80 45L73 45L73 0L108 0L108 45L135 45L135 90L47 90L47 135L135 135L135 180L128 180L128 225L128 225L128 270L54 270L54 315L108 315L108 360L148 360L148 405L155 405L155 450L67 450L67 495L108 495L108 540L61 540L61 585L122 585L122 630L88 630L88 675L101 675L101 720L142 720L142 765L148 765L148 810L81 810L81 855L162 855L162 900L95 900Z" fill="#281039"></path><path d="M13 900L40 900L40 855L0 855L0 810L40 810L40 765L53 765L53 720L13 720L13 675L6 675L6 630L40 630L40 585L13 585L13 540L26 540L26 495L19 495L19 450L60 450L60 405L40 405L40 360L6 360L6 315L6 315L6 270L60 270L60 225L13 225L13 180L40 180L40 135L40 135L40 90L53 90L53 45L6 45L6 0L74 0L74 45L81 45L81 90L47 90L47 135L95 135L95 180L88 180L88 225L101 225L101 270L20 270L20 315L74 315L74 360L115 360L115 405L88 405L88 450L61 450L61 495L95 495L95 540L27 540L27 585L74 585L74 630L41 630L41 675L41 675L41 720L108 720L108 765L108 765L108 810L14 810L14 855L95 855L95 900L34 900Z" fill="#3b0a39"></path><path d="M0 900L0 900L0 855L0 855L0 810L0 810L0 765L0 765L0 720L0 720L0 675L0 675L0 630L0 630L0 585L0 585L0 540L0 540L0 495L0 495L0 450L0 450L0 405L0 405L0 360L0 360L0 315L0 315L0 270L0 270L0 225L0 225L0 180L0 180L0 135L0 135L0 90L0 90L0 45L0 45L0 0L7 0L7 45L54 45L54 90L41 90L41 135L41 135L41 180L14 180L14 225L61 225L61 270L7 270L7 315L7 315L7 360L41 360L41 405L61 405L61 450L20 450L20 495L27 495L27 540L14 540L14 585L41 585L41 630L7 630L7 675L14 675L14 720L54 720L54 765L41 765L41 810L0 810L0 855L41 855L41 900L14 900Z" fill="#4c0135"></path></svg>